# xmcd CD database file
#
# Track frame offsets:
#	150
#	23261
#	71003
#	93695
#	111554
#	134107
#	156758
#	180412
#	206364
#	227246
#	249436
#
# Disc length: 3595 seconds
#
# Revision: 0
# Processed by: cddbd v1.5.1PL2 Copyright (c) Steve Scherf et al.
# Submitted via: CDex 1.51
#
DISCID=950e090b
DTITLE=Sonny Rollins - The complete Prestige
DYEAR=1900
DGENRE=Jazz
TTITLE0=Let's Call This
TTITLE1=Friday the 13th
TTITLE2=Soft Shoe
TTITLE3=Confab in Tempo
TTITLE4=I'll Take Romance
TTITLE5=Airegin
TTITLE6=Oleo
TTITLE7=But Not For Me (take 1)
TTITLE8=But Not For Me (take 2)
TTITLE9=Doxy
TTITLE10=Movin' Out
EXTD=
EXTT0=
EXTT1=
EXTT2=
EXTT3=
EXTT4=
EXTT5=
EXTT6=
EXTT7=
EXTT8=
EXTT9=
EXTT10=
PLAYORDER=
